<?xml version="1.0" encoding="UTF-8"?>
<svg xmlns="http://www.w3.org/2000/svg" xmlns:xlink="http://www.w3.org/1999/xlink" viewBox="0 0 500 500" width="500px" height="500px">
<g id="surface21621906">
<path style=" stroke:none;fill-rule:nonzero;fill:rgb(100%,100%,100%);fill-opacity:1;" d="M 249.296875 20.019531 C 248.199219 20.023438 247.089844 20.207031 246.035156 20.566406 L 36.71875 93.417969 C 32.277344 94.957031 29.5 99.390625 30.078125 104.0625 L 63.164062 375.292969 C 63.554688 378.503906 65.449219 381.332031 68.300781 382.871094 L 244.785156 478.789062 C 246.265625 479.597656 247.910156 480 249.550781 480 C 251.199219 480 252.867188 479.589844 254.355469 478.769531 L 431.738281 381.542969 C 434.558594 379.992188 436.476562 377.175781 436.855469 373.984375 L 469.921875 102.773438 C 470.5 98.082031 467.691406 93.609375 463.203125 92.089844 L 252.539062 20.527344 C 251.488281 20.175781 250.394531 20.015625 249.296875 20.019531 Z M 250 70 L 380 350 L 335.625 350 L 307.8125 290.078125 L 192.1875 290.078125 L 164.375 350 L 120 350 Z M 250 165 L 210.800781 250 L 289.199219 250 Z M 250 165 "/>
</g>
</svg>
