<?xml version="1.0" encoding="UTF-8"?>
<svg xmlns="http://www.w3.org/2000/svg" xmlns:xlink="http://www.w3.org/1999/xlink" viewBox="0 0 256 256" width="256px" height="256px">
<g id="surface21616876">
<path style=" stroke:none;fill-rule:nonzero;fill:rgb(100%,100%,100%);fill-opacity:1;" d="M 168 32 L 200 32 L 200 64 L 168 64 Z M 200 182.03125 C 200 192.832031 197.464844 228.425781 166.0625 239.222656 L 136 224 C 158.449219 214.207031 168 198.398438 168 182.03125 C 168 159.40625 168 88 168 88 L 200 88.015625 C 200 88.015625 200 157.71875 200 182.03125 Z M 112 32 L 112 82.414062 C 108.246094 80.886719 100.160156 80.59375 96.175781 80.59375 C 66.183594 80.59375 40 96.089844 40 136 C 40 183.753906 76.03125 191.976562 101.199219 191.976562 C 111.136719 191.976562 133.199219 191 144 187.871094 L 144 32 Z M 100.871094 165.328125 C 86.71875 165.328125 72 158.902344 72 136 C 72 113.097656 86.71875 108.246094 100.871094 108.246094 C 104.328125 108.246094 108.214844 108.894531 112 109.761719 L 112 163.816406 C 108.222656 164.671875 104.335938 165.328125 100.871094 165.328125 Z M 100.871094 165.328125 "/>
</g>
</svg>
